<?xml version="1.0" encoding="utf-8"?>
<!-- Generator: Adobe Illustrator 16.0.3, SVG Export Plug-In . SVG Version: 6.00 Build 0)  -->
<!DOCTYPE svg PUBLIC "-//W3C//DTD SVG 1.1//EN" "http://www.w3.org/Graphics/SVG/1.1/DTD/svg11.dtd">
<svg version="1.1" id="Layer_1" xmlns="http://www.w3.org/2000/svg" xmlns:xlink="http://www.w3.org/1999/xlink" x="0px" y="0px"
	 width="105.947px" height="54.078px" viewBox="0 0 105.947 54.078" style="enable-background:new 0 0 105.947 54.078;"
	 xml:space="preserve">
<g>
	<g>
		<g>
			<g>
				<path style="fill:#FECC17;" d="M29.878,34.22c-2.291,2.287-4.885,2.705-4.885-2.016c0-0.986,0-4.039,0-5.317
					c0-7.897-10.461-8.37-10.461-8.37h5.005c3.174,0,6.966-3.723,6.966-8.855c0-5.432-3.851-8.735-6.966-8.735
					c-3.178,0-9.395,0-10.858,0S0,0.927,0,0.927V1.27c0,0,3.089-0.073,3.089,1.564c0,0.387,0,31.75,0,32.599
					c0,0.846-3.044,0.775-3.044,0.775v0.717h10.755v-0.717c0,0-3.058,0.064-3.058-0.775c0-0.756,0-15.394,0-16.185
					c0-1.001,0-0.73,0-0.73s2.137,0,4.654,0c2.518,0,7.931,1.866,7.931,8.423c0,1.239,0,4.206,0,5.264
					c0,4.721,4.799,7.678,9.551,2.928c1.19-1.191,1.635-1.635,1.635-1.635V32.65C31.513,32.65,30.485,33.613,29.878,34.22z
					 M14.767,17.873c-0.934,0-7.025,0-7.025,0s0-0.758,0-4.216c0-1.959,0-9.356,0-10.823c0-1.538,3.119-1.408,3.119-1.408
					s2.487,0,3.907,0c2.91,0,7.476,1.388,7.476,8.259C22.243,16.313,17.801,17.873,14.767,17.873z"/>
			</g>
			<g>
				<path style="fill:#FECC17;" d="M40.115,12.917c-3.428,0-11.169,2.438-11.169,12.454c0,9.972,7.741,12.275,11.169,12.275
					c3.394,0,10.945-2.303,10.945-12.275C51.06,15.223,43.542,12.917,40.115,12.917z M41.622,36.658
					c-3.28,0-8.022-2.689-8.022-11.287c0-9.129,5.119-11.546,8.022-11.546c3.204,0,8.827,3.155,8.827,11.546
					C50.449,32.048,46.009,36.658,41.622,36.658z"/>
			</g>
			<g>
				<g>
					<path style="fill:#FECC17;" d="M50.839,21.688l5.786-5.788v0.853l-5.291,5.4c-0.283,0.282-0.462,0.562-1.097,0.562"/>
				</g>
			</g>
			<g>
				<path style="fill:#FECC17;" d="M51.124,21.42c0.168,0.631-0.095,1.248-0.582,1.375c-0.491,0.135-1.023-0.272-1.19-0.904
					c-0.166-0.629,0.094-1.245,0.585-1.377c0.275-0.072,0.491,1.097,0.723,1.31L51.124,21.42z"/>
			</g>
			<g>
				<path style="fill:#FECC17;" d="M99.58,0.234c0,1.211,0,9.232,0,29.66c0,5,1.089,7.914,4.104,4.9l2.264-2.152v0.832l-2.197,2.178
					c-3.565,3.564-8.158,1.969-8.158-1.773c0-3.9,0-31.263,0-32.228c0-1.393-3.063-1.285-3.063-1.285V0c0,0,5.77,0,6.78,0
					C99.535,0,99.58,0.009,99.58,0.234z"/>
			</g>
			<g>
				<path style="fill:#FECC17;" d="M88.542,12.917c-3.428,0-9.938,2.438-9.938,12.454c0,9.972,6.51,12.275,9.938,12.275
					c3.391,0,10.946-2.303,10.946-12.275C99.488,15.223,91.968,12.917,88.542,12.917z M90.048,36.658
					c-3.281,0-6.79-2.689-6.79-11.287c0-9.129,3.887-11.546,6.79-11.546c3.203,0,8.828,3.155,8.828,11.546
					C98.876,32.048,94.435,36.658,90.048,36.658z"/>
			</g>
			<g>
				<path style="fill:#FECC17;" d="M74.405,0.234c0,1.211,0,9.232,0,29.66c0,5,1.091,7.914,4.106,4.9l2.261-2.152v0.832
					l-2.197,2.178c-3.565,3.564-8.157,1.969-8.157-1.773c0-3.9,0-31.263,0-32.228c0-1.393-3.061-1.285-3.061-1.285V0
					c0,0,5.771,0,6.78,0C74.362,0,74.405,0.009,74.405,0.234z"/>
			</g>
			<g>
				<path style="fill:#FECC17;" d="M63.367,12.917c-3.426,0-9.935,2.438-9.935,12.454c0,9.972,6.509,12.275,9.935,12.275
					c3.396,0,10.946-2.303,10.946-12.275C74.313,15.223,66.796,12.917,63.367,12.917z M64.875,36.658
					c-3.279,0-6.789-2.689-6.789-11.287c0-9.129,3.886-11.546,6.789-11.546c3.204,0,8.827,3.155,8.827,11.546
					C73.702,32.048,69.262,36.658,64.875,36.658z"/>
			</g>
		</g>
	</g>
	<g style="opacity:0.4;">
		<g>
			<path style="fill:#FFFFFF;" d="M20.884,49.035v-0.029c0-2.773,2.073-5.07,4.902-5.07c1.751,0,2.802,0.645,3.811,1.568
				l-0.519,0.533c-0.854-0.826-1.835-1.443-3.306-1.443c-2.354,0-4.132,1.92-4.132,4.385v0.027c0,2.48,1.807,4.414,4.146,4.414
				c1.415,0,2.382-0.547,3.376-1.527l0.49,0.477c-1.036,1.021-2.157,1.709-3.894,1.709C22.958,54.078,20.884,51.849,20.884,49.035z"
				/>
			<path style="fill:#FFFFFF;" d="M36.21,44.033h0.7l4.566,9.877h-0.798l-1.247-2.746h-5.785l-1.246,2.746h-0.757L36.21,44.033z
				 M39.125,50.505l-2.578-5.674l-2.591,5.674H39.125z"/>
			<path style="fill:#FFFFFF;" d="M43.623,52.48l0.477-0.547c1.078,0.996,2.073,1.457,3.516,1.457c1.471,0,2.479-0.826,2.479-1.947
				v-0.027c0-1.037-0.546-1.639-2.773-2.088c-2.354-0.475-3.306-1.273-3.306-2.758v-0.029c0-1.457,1.331-2.576,3.151-2.576
				c1.429,0,2.367,0.391,3.362,1.189l-0.463,0.574c-0.924-0.799-1.849-1.105-2.927-1.105c-1.443,0-2.396,0.826-2.396,1.848V46.5
				c0,1.035,0.532,1.666,2.857,2.143c2.27,0.463,3.222,1.275,3.222,2.703v0.029c0,1.582-1.358,2.674-3.25,2.674
				C46.004,54.048,44.799,53.531,43.623,52.48z"/>
			<path style="fill:#FFFFFF;" d="M56.569,44.777h-3.417v-0.674h7.563v0.674h-3.418v9.133h-0.729V44.777z"/>
			<path style="fill:#FFFFFF;" d="M63.52,44.103h0.729v9.133h5.757v0.674H63.52V44.103z"/>
			<path style="fill:#FFFFFF;" d="M72.796,44.103h6.976v0.674h-6.247v3.852h5.616V49.3h-5.616v3.936h6.317v0.674h-7.046V44.103z"/>
		</g>
	</g>
</g>
</svg>
